<svg xmlns="http://www.w3.org/2000/svg" xmlns:xlink="http://www.w3.org/1999/xlink" width="50" height="50" viewBox="0 0 50 50">
  <defs>
    <clipPath id="clip-logo">
      <rect width="50" height="50"/>
    </clipPath>
  </defs>
  <g id="logo" clip-path="url(#clip-logo)">
    <rect width="50" height="50"/>
    <path id="Path_12" data-name="Path 12" d="M7.217,29.372c-.172-.03-.337-.03-.538-.06A.294.294,0,0,1,6.395,29a7.009,7.009,0,0,0-.538-1.87,3.231,3.231,0,0,1-.142-.509A11.284,11.284,0,0,0,5.378,25c-.284-.987-.426-1.982-.7-2.939-.194-.793-.366-1.585-.591-2.348-.112-.366-.314-.681-.449-1.017-.03-.03-.06-.082-.082-.082-.06,0-.082.06-.082.112a.245.245,0,0,0-.03.142c.03.681-.03,1.331.06,2a5.527,5.527,0,0,1-.03.7c0,1.159-.06,2.318.03,3.478,0,.366-.06.733-.03,1.1.03.509.03.987.082,1.473a12.483,12.483,0,0,1,.03,1.5c0,.112-.082.142-.194.172a4.454,4.454,0,0,1-.9.06H.524c-.337,0-.479-.112-.509-.479a5.63,5.63,0,0,1,0-.71A13.715,13.715,0,0,0,.1,26.583c.03-.935-.03-1.87-.03-2.8,0-.7-.03-1.384.03-2.064a14.046,14.046,0,0,0,.06-1.585C.1,18.1.128,16.068.128,14l.082-.681a1.86,1.86,0,0,0-.06-1.047c0-.06-.03-.082-.03-.142.03-.733-.06-1.5-.03-2.259C.09,8.664.15,7.445.12,6.2c0-.224-.06-.449-.06-.681,0-.366.082-.479.449-.449,1.047.03,2.094-.03,3.141,0a11.39,11.39,0,0,0,1.75,0,1.692,1.692,0,0,1,.845.082.292.292,0,0,0,.224,0,.959.959,0,0,1,.733.082,4.966,4.966,0,0,1,1.047.591,2.587,2.587,0,0,1,.9,1.331A4.257,4.257,0,0,1,9.409,8.6a25.451,25.451,0,0,1,0,3.021c-.03.366-.142.733-.142,1.129a5.88,5.88,0,0,0,.082.621.329.329,0,0,1,.06.224c-.06.449,0,.9-.06,1.331a1.113,1.113,0,0,0-.06.314,2.375,2.375,0,0,1-.621,1.526l-.142.142a2.568,2.568,0,0,1-1.7,1.159c-.03-.06,0-.142-.06-.194a.029.029,0,0,0-.03.03c-.03.082.06.112.082.172a.737.737,0,0,0-.06.426c.284,1.1.509,2.236.9,3.335.337.965.621,1.952.875,2.909.112.449.337.845.426,1.3a11.869,11.869,0,0,0,.651,1.922c.142.366.254.733.366,1.1.06.254-.03.366-.284.337-.845-.112-1.7-.03-2.513-.06ZM.546,26.209v-.03a.189.189,0,0,0,.082-.224c-.06-.112-.194-.06-.254-.112-.082,0-.082.06-.06.112.06.06.082.112.06.172-.03.082-.112.194,0,.254C.457,26.44.457,26.239.546,26.209Zm.09-3.029c0-.082-.03-.142-.112-.142-.06,0-.112,0-.112.06,0,.082,0,.172.112.194C.584,23.322.636,23.232.636,23.18Zm-.06-7.12c0-.06-.03-.112-.082-.112-.03-.03-.06,0-.06.03,0,.06,0,.112.06.112C.554,16.12.576,16.09.576,16.06Zm.06-9.587a.1.1,0,0,0,.03-.06c0-.06-.03-.142-.082-.142S.5,6.331.5,6.383c0,.03-.03.03,0,.06,0,.06-.082.142-.03.172a.215.215,0,0,0,.172-.142ZM.808,25.58c0-.112-.082-.172-.194-.194-.06.03-.172,0-.142.112.03.082.06.194.194.194C.748,25.723.808,25.663.808,25.58ZM.666,17.272c0-.06,0-.142-.112-.142-.06,0-.06.03-.082.112.03.06.03.112.112.112a.072.072,0,0,0,.082-.082Zm-.03,6.387s0-.082-.06-.082c-.06.03-.082.112-.112.172a.072.072,0,0,0,.082.082c.082,0,.082-.082.082-.172Zm.142,1.3a.177.177,0,0,0-.142-.194.194.194,0,0,0-.172.224c0,.082.03.224.112.224.142,0,.194-.112.194-.254ZM.606,22.619a.029.029,0,0,1-.03-.03.091.091,0,0,0-.06.082.1.1,0,0,0,.06.03C.606,22.7.636,22.641.606,22.619ZM.778,8.6A.072.072,0,0,0,.7,8.514.075.075,0,0,0,.614,8.6c.03.06.06.082.112.082s.082-.03.06-.082Zm.284,18.263a.564.564,0,0,0-.112-.03.758.758,0,0,0-.194-.112c-.03.03-.082.03-.112.06-.03.082.06.082.082.082.06.03.112.112.194.082.06,0,.142,0,.142-.082ZM.92,14.557c.03-.06,0-.082-.03-.082a.413.413,0,0,0-.254.172c-.03.06.06.082.112.112.112,0,.142-.112.172-.194Zm0,5.347c0-.112-.082-.112-.142-.112-.082,0-.142,0-.142.082,0,.112.082.142.172.142.06,0,.082-.06.112-.112Zm-.112.621c0-.06-.03-.082-.082-.112-.06,0-.082.03-.082.06,0,.082,0,.142.06.172.082,0,.082-.06.112-.112Zm.389,3.62c0-.06.03-.112-.06-.112-.03-.03-.06,0-.082.03-.082.06-.172.172-.254,0-.03-.03-.112.06-.142.112a.1.1,0,0,0-.03.082.67.67,0,0,0,.426.172c.142-.06.142-.172.142-.284ZM.748,9.389c.06-.06.194-.03.172-.172l-.03-.03A.269.269,0,0,0,.7,9.382c0,.03.03.03.06,0ZM1,16.367c0-.082-.082-.082-.142-.082a.16.16,0,0,0-.172.142.121.121,0,0,0,.112.112A.183.183,0,0,0,1,16.367ZM.831,27.278q0-.06-.03-.06c-.06,0-.112.03-.082.082a.064.064,0,0,0,.06.06c.06,0,.06-.03.06-.082ZM.808,7.266s-.03-.03-.03,0a.3.3,0,0,0-.03.142c0,.03.03.06.06.03V7.266ZM1.878,18.147a.624.624,0,0,0-.06-.194c-.06-.112-.172-.172-.254-.284a.346.346,0,0,0-.479-.03l-.172.194c-.082.06-.224.112-.142.224S.965,18,1.085,18c.06,0,.06-.082.06-.112a.138.138,0,0,1,.142-.142c.06,0,.06.082.082.142a.35.35,0,0,1,.03.172c0,.03-.03.112.06.112.06,0,.082-.06.112-.112,0-.03,0-.082.06-.082a.161.161,0,0,1,.03.112v.082c0,.06-.082.172.06.172.112.03.142-.082.172-.194ZM.831,13.061a.029.029,0,0,0-.03-.03c0-.03-.03-.03-.03,0-.03.03-.03.06.03.06A.029.029,0,0,0,.831,13.061Zm0,.965A.029.029,0,0,1,.8,14a.1.1,0,0,1-.03.06c0,.03.03.03.06.03Zm.142,4.4c.03-.06,0-.112-.06-.082a.182.182,0,0,0-.142.172c0,.03.03.082.06.082A.174.174,0,0,0,.973,18.431ZM1.2,21.512A.189.189,0,0,0,1,21.37c-.06-.03-.224.194-.194.284a.087.087,0,0,0,.082.082c.082-.03.314-.172.314-.224ZM2.214,6.7c.03-.112-.03-.172-.112-.224L2.02,6.42s-.06-.082,0-.112.112-.06.082-.112a.177.177,0,0,0-.172-.082.4.4,0,0,1-.366-.03c-.082-.06-.172-.03-.284-.03-.06-.194-.194-.224-.4-.224A.089.089,0,0,0,.8,5.86c0,.06.03.06.06.082.142.112.314.06.426.112.112.224.194.479.538.479.06-.03.082.06.112.112a.182.182,0,0,0,.172.142c.06,0,.112-.03.112-.082ZM1.825,26.179a.259.259,0,0,0-.284-.254A.251.251,0,0,0,1.4,25.7a.27.27,0,0,1-.142-.4.977.977,0,0,1,.112-.4.135.135,0,0,0-.06-.172c-.082-.03-.112.03-.112.082-.082.142-.254.284-.224.449a.469.469,0,0,1-.142.509c-.06.06,0,.142.06.112a.46.46,0,0,1,.426.082c.082.06.172,0,.224-.06.06.112.06.224.142.314.03.03.082.082.142.06a.081.081,0,0,0,0-.112Zm-.793-14.5C1,11.618.973,11.6.92,11.6a.075.075,0,0,0-.082.082c0,.052.03.112.082.082C.98,11.76,1.033,11.73,1.033,11.678Zm-.09.733s0-.06-.03-.06a.089.089,0,0,0-.082.03c0,.06.03.06.06.082a.064.064,0,0,0,.06-.06Zm.2,3.418c0-.112-.112-.142-.194-.172-.06,0-.112.03-.112.082,0,.112.082.112.172.112.06.03.142.03.142-.03Zm.03,6.813c.03-.082-.06-.142-.224-.172-.06,0-.082,0-.112.06a.878.878,0,0,0,.142.337.5.5,0,0,0,.194-.224Zm-.03-1.668c.142.06.224.03.254-.082,0-.142-.112-.142-.194-.112a.089.089,0,0,1-.082-.03c-.194-.172-.172.082-.224.142-.082.082-.06.194.112.194.03-.082.03-.142.142-.112Zm.337,3.7c.112-.172,0-.426.194-.591.03-.03,0-.112-.03-.172-.142-.194-.082-.621-.509-.538-.03,0-.06-.06-.082-.082-.06-.03-.082-.06-.142-.03a.107.107,0,0,0-.06.142.222.222,0,0,1,0,.314l.06.06s.06.03.06,0l.082-.112c0-.06,0-.172.112-.142a.143.143,0,0,1,.082.194.128.128,0,0,0,.03.194c.142.112.112.224.06.366q-.142.254.142.4c.03.06.03.142.112.112C1.653,24.676,1.564,24.676,1.481,24.676Zm-.4-17.806A.162.162,0,0,0,.973,6.7c-.082.03-.112.06-.112.142s.03.172.142.172C1.085,7.011,1.085,6.929,1.085,6.869Zm0,6.506c0-.082-.082-.082-.172-.082-.03-.03-.06,0-.06.03.03.082.06.172.172.142.03,0,.06-.03.06-.082ZM1.2,26.231c-.03-.112-.06-.194-.172-.194a.209.209,0,0,0-.172.224c0,.06.03.142.082.142a.413.413,0,0,0,.254-.172Zm-.135-9.1s0-.082-.06-.082a.121.121,0,0,0-.112.112c0,.052,0,.082.06.082C1.033,17.242,1.033,17.182,1.063,17.13Zm.022,10.433c0-.06,0-.112-.06-.112-.082.03-.142.06-.142.142a.072.072,0,0,0,.082.082.105.105,0,0,0,.112-.112ZM1,12.807s0-.06-.03-.06H.943s-.03.06,0,.082c.03,0,.03-.03.06-.03Zm.03.9L1,13.682q-.06,0-.06.03s0,.06.03.06S1,13.772,1.033,13.712Zm.052,1.443a.059.059,0,0,0-.06-.06c-.06.03-.082.06-.082.112s.03.082.06.082c.082-.03.082-.082.082-.142Zm0,6.073c.03-.082-.06-.112-.082-.112-.03.06-.06.112.03.142a.1.1,0,0,0,.06-.03ZM1.4,18.775s0-.06-.03-.082-.06-.03-.082,0A.772.772,0,0,0,1,19.007c-.03.06,0,.112.06.112a.967.967,0,0,0,.337-.337Zm-.2-2.064a.3.3,0,0,0,.03-.112c.082-.03.194-.03.224-.172a.1.1,0,0,0-.06-.03c-.112,0-.142.112-.172.194H1.107a.072.072,0,0,0-.082.082c0,.03.03.06.06.082.06.03.112,0,.112-.06Zm.344,5.28-.03-.06c-.082-.03-.366.06-.4.142-.03.06,0,.112.03.172.03.03.082.082.142.06A2.311,2.311,0,0,0,1.541,21.991ZM1.2,19.56s0-.06-.03-.082a.064.064,0,0,0-.06.06.1.1,0,0,0,.03.06c.03.03.06,0,.06-.03Zm.03-4.068s0-.06-.03-.06-.06,0-.06.03c-.03.03-.03.06.03.06C1.2,15.552,1.227,15.522,1.227,15.492ZM1.369,23.1c-.082-.142-.06-.194.082-.254.254-.112.284-.142.142-.366-.03-.06-.06-.142-.142-.112-.06.03-.06.082-.03.142a.223.223,0,0,1-.142.314c-.142.06-.082.172-.082.254-.06.112-.03.172.06.194.03.03.082.06.112.03a.128.128,0,0,0,0-.194Zm0-10.4a.188.188,0,0,0-.03-.082c-.03-.06.06-.284-.06-.254-.112,0-.082.194-.112.337v.03c.06.082.03.224.112.224.142,0,.082-.172.082-.254Zm.082,7.748a.348.348,0,0,1-.082-.224c0-.06-.03-.112-.082-.112-.06.03-.112.082-.082.112.03.112,0,.224.06.314.06.06.082.082.142.06.082-.03.082-.082.06-.142ZM1.4,11.169c0-.06-.03-.112-.082-.082A.105.105,0,0,0,1.2,11.2c0,.052.03.112.082.112A.134.134,0,0,0,1.4,11.169Zm.284-3.762c0-.142-.06-.254-.172-.254-.142,0-.284.082-.284.194-.03.03.194.284.254.314.082,0,.224-.172.194-.254ZM1.339,14.9a.1.1,0,0,0-.06-.03.06.06,0,0,0,0,.12c.03-.03.06-.03.06-.082Zm0,3.5s-.03-.06-.06-.03a.064.064,0,0,0-.06.06.029.029,0,0,0,.03.03c.06,0,.06-.03.082-.06Zm.03-6.529-.03-.06c-.06.03-.082.03-.082.06,0,.06.03.082.06.082.06,0,.082-.03.06-.082Zm.284,8.062c.142.172.224.172.284-.06.03-.142.06-.194.224-.142.06,0,.142-.03.06-.112A.477.477,0,0,1,2.08,19c-.03-.082-.06-.142-.142-.142-.082-.03-.112.03-.142.112v.112a.315.315,0,0,1-.194.449c-.112.06-.142.194-.254.224a.107.107,0,0,0-.06.142c.03.06.082.06.142.03.082-.06.142-.112.224,0Zm-.2-2.632c0-.06,0-.082-.06-.082a.072.072,0,0,0-.082.082.088.088,0,0,0,.082.082C1.421,17.384,1.421,17.324,1.451,17.3Zm.06-1.189c0-.06-.03-.112-.082-.082-.082.03-.082.06-.082.112a.075.075,0,0,0,.082.082C1.489,16.195,1.511,16.165,1.511,16.113Zm.06,5.37c0-.112.03-.194.142-.224.06-.03.112-.082.06-.142a.114.114,0,0,0-.194,0,.971.971,0,0,0-.224.426c0,.06.03.082.06.082.082-.03.194-.06.172-.142Zm-.06,5.968c-.03-.06.06-.172-.03-.172-.112,0-.112.142-.142.224a.1.1,0,0,0,.112.112c.112,0,.06-.082.06-.172Zm0-.456s-.03-.06-.082-.06a.064.064,0,0,0-.06.06c0,.06.03.06.06.082C1.459,27.076,1.489,27.046,1.511,26.994Zm.06-17.238c0-.06,0-.112-.082-.082-.06,0-.082.06-.082.112s0,.112.082.142C1.571,9.9,1.571,9.816,1.571,9.756ZM1.593,5.71c0-.112.03-.194.194-.172.03,0,.112.03.112-.03a.121.121,0,0,0-.082-.172c-.06-.03-.172-.112-.194-.03a2.272,2.272,0,0,0-.172.4c0,.03.03.082.06.082A.072.072,0,0,0,1.593,5.7Zm0,9.587c0-.06-.03-.082-.06-.082a.072.072,0,0,0-.082.082.064.064,0,0,0,.06.06C1.571,15.357,1.593,15.327,1.593,15.3Zm.09-.456a.093.093,0,0,0-.03-.06l-.082-.112s-.03-.06-.06-.03a.045.045,0,0,0-.03.082.467.467,0,0,0,.142.112h.06Zm.052,4.3c0-.06-.03-.142-.112-.142-.082.03-.082.112-.112.172,0,.06.03.142.112.112.082,0,.112-.082.112-.142Zm.06,6.3c-.03-.112.03-.284-.172-.314a.105.105,0,0,0-.112.112c0,.082.194.314.254.284.03,0,.03-.06.03-.082ZM1.878,18.6c0-.06-.03-.082-.112-.082-.082.03-.194.03-.224.172,0,.082.03.112.082.112a.246.246,0,0,0,.254-.194ZM1.706,11.85c0-.06.03-.142-.06-.172a.087.087,0,0,0-.082.082.786.786,0,0,0,.06.254c.082-.03.06-.112.082-.172ZM1.878,15.6s0-.06-.03-.06c-.082-.03-.284.142-.284.224s.03.112.112.142c.082,0,.194-.172.194-.314ZM1.736,28.751s-.03-.06-.06-.06a.072.072,0,0,0-.082.082c-.03.03,0,.06.03.06.06,0,.082-.03.112-.082ZM1.8,24.96c.03-.082-.03-.112-.082-.142H1.6a.3.3,0,0,1,.03.112c.03.03.06.082.112.082.03-.03.06-.03.06-.06Zm.112,1.81H1.99s.06-.03.06-.06c.03-.03,0-.06-.03-.06s-.06.03-.082.03a.089.089,0,0,1-.03.082l-.06-.082c-.03-.082-.082-.194-.172-.172-.142.06-.06.172-.03.254v.06c.03.082.06.172.172.142s.082-.112.082-.194Zm.03-5.085a.286.286,0,0,0-.06-.224c-.082.03-.112.082-.172.112s-.112.06-.082.142.082.082.142.082a.162.162,0,0,0,.172-.112Zm-.172,6.132a.294.294,0,0,0-.06-.082.072.072,0,0,0-.082.082c0,.03,0,.082.06.06C1.713,27.876,1.743,27.846,1.765,27.817Zm.194-10.4c-.06-.112-.082-.194.03-.284a.17.17,0,0,0-.082-.224l-.03.03c-.082.082-.254.112-.194.194.06.112-.03.254.06.366.03.06.082.06.142.06.06-.03.112-.082.082-.142ZM1.848,13.57c.194-.172.224-.426.366-.621.06-.03-.03-.112-.082-.112a.282.282,0,0,0-.194.172,1.085,1.085,0,0,1-.224.479c-.03.06,0,.112.082.112a.1.1,0,0,1,.06-.03ZM1.825,5.882a.122.122,0,0,0-.082-.03c-.03,0-.03.03-.03.06l.06.03a.059.059,0,0,0,.06-.06ZM1.99,22.387c-.03-.082-.082-.06-.142-.06-.082,0-.142,0-.142.082.03.06.082.112.142.082.082,0,.112-.03.142-.112Zm-.112,2.124a.072.072,0,0,0-.082-.082c-.052,0-.082.06-.082.142.03.03.06.06.082.06.06-.03.082-.06.082-.112Zm.082-1.384c0-.06,0-.172-.082-.172-.112.03-.142.142-.142.284-.03.06,0,.172.082.142C1.96,23.382,1.99,23.24,1.96,23.127Zm-.022-6.618a.242.242,0,0,0-.142-.142c-.06,0-.06.06-.06.082.03.06.03.142.112.172.06,0,.082-.06.082-.112Zm.022,9.386c.082-.082.112-.254.254-.06.082,0,.112-.03.112-.082.03-.06.06-.142-.03-.172-.112-.03-.194-.142-.284-.082a.42.42,0,0,0-.194.337.089.089,0,0,0,.03.082c.06.03.082,0,.112-.03Zm0,2.288s-.03-.06-.06-.06c-.06,0-.082.03-.082.06s0,.06.06.06C1.908,28.243,1.937,28.213,1.96,28.183Zm.2-6.162c-.03-.112-.082-.172-.194-.172-.06,0-.112.03-.112.082.03.112.082.224.194.224.082.03.112-.06.112-.142ZM2.05,14.049a.092.092,0,0,0-.06-.082c-.06,0-.082.03-.082.06,0,.06,0,.082.06.112a.072.072,0,0,0,.082-.082Zm.112,6.761c-.06-.082,0-.224-.03-.366a.129.129,0,0,0-.142-.082c-.082,0-.082.06-.082.112a.962.962,0,0,0,.082.4.1.1,0,0,0,.112.112C2.162,20.951,2.162,20.9,2.162,20.809ZM2.08,16.06S2.02,16,2,16c-.06,0-.082.06-.06.082,0,.06.03.082.06.06A.072.072,0,0,0,2.08,16.06Zm.366,2.229h.03a.1.1,0,0,0-.06-.03c-.06-.03-.112-.142-.194-.082s-.194.06-.254.112c-.03,0-.03.03,0,.06.06.082.366.06.479-.06ZM2.1,21.258l-.06-.06c-.06,0-.082.03-.082.06,0,.06.03.06.06.082C2.05,21.34,2.08,21.31,2.1,21.258Zm0,1.443c.082,0,.142-.03.142-.142-.03-.03-.06-.06-.082-.06a.112.112,0,0,0-.082.172.029.029,0,0,0,.03.03c-.06.03-.142,0-.142.082l.03.03c.112.03.082-.06.112-.112Zm.172,1.556a.421.421,0,0,1,0-.194c.03.03.06.06.06.082.06.03.142.082.194.03.082-.03.06-.112.06-.172a.93.93,0,0,0-.366-.479c-.06,0-.112.06-.082.082.142.142.06.337.142.456a.259.259,0,0,0-.194.082c-.082.06-.142.142-.06.224a.283.283,0,0,0,.254.06c.112-.06.03-.112,0-.172Zm-.082,1.75a.324.324,0,0,1-.03-.082.486.486,0,0,0-.172.254.064.064,0,0,0,.06.06c.082,0,.172-.172.142-.224Zm.022-13.992c-.03-.06-.06-.06-.112-.06a.143.143,0,0,0-.082.194.064.064,0,0,0,.06.06c.06-.06.142-.112.142-.194ZM2.192,7.236s-.03-.082-.06-.082c-.06,0-.082.06-.112.112a.072.072,0,0,0,.082.082c.052,0,.082-.06.082-.112ZM2.08,28.385l-.03-.03a.1.1,0,0,0-.03.06l.03.03C2.11,28.445,2.11,28.415,2.08,28.385Zm.082-.651s-.03-.06-.082-.03l-.03.03s.03.06.06.06a.064.064,0,0,0,.06-.06Zm.479-5.826a.4.4,0,0,1,.06-.366.3.3,0,0,0-.082-.254c-.142-.06-.142.082-.194.112a.524.524,0,0,0-.142.194c-.06-.03-.142-.142-.194-.03a.167.167,0,0,0,.112.224c.112.03.112-.06.112-.172.142.06.142.194.194.314.03,0,.06.03.082.03a.071.071,0,0,0,.06-.06Zm-.449-7.486s-.03-.06-.06-.06a.064.064,0,0,0-.06.06c0,.06.03.06.06.06A.064.064,0,0,0,2.192,14.422Zm.763,4.233c-.03-.06-.06-.06-.112-.082a.577.577,0,0,1,.142-.224c.03-.03.03-.082-.03-.06-.254.082-.172-.142-.254-.224-.112-.194,0-.284.142-.366.03-.03.082-.03.112-.06.082-.03.142-.06.142-.142a.334.334,0,0,0-.142-.194c-.172-.06-.284,0-.314.194a.3.3,0,0,1-.366.254c-.082,0-.172-.03-.194.112,0,.082.082.112.172.112a.226.226,0,0,1,.224.284,1.586,1.586,0,0,0,.224.224c-.142.082-.082.172-.03.284a.134.134,0,0,1,.194-.03c.03.06.082.112.112.06.06-.03.03-.112-.03-.142Zm-.651.06c0-.082-.03-.112-.112-.112-.03,0-.112.03-.112.082s.03.082.082.112a.16.16,0,0,0,.142-.082Zm-.09,4.577c.03-.06,0-.082-.03-.082-.06-.03-.112,0-.112.06s.03.082.06.082c.06,0,.082-.03.082-.06Zm.06,3.934c-.03-.06-.03-.172-.082-.194s-.082.06-.112.082c0,.112.03.172.112.194A.072.072,0,0,0,2.274,27.226Zm.082-7.86c0-.142.082-.284.03-.426-.254.082-.366.284-.224.456C2.244,19.456,2.334,19.478,2.356,19.366ZM2.3,13.458s0-.06-.03-.06a.162.162,0,0,0-.172.112.064.064,0,0,0,.06.06C2.222,13.57,2.3,13.54,2.3,13.458Zm-.03-2.236s-.03-.06-.06-.06c-.06,0-.082.03-.082.06,0,.06.03.082.06.082A.072.072,0,0,0,2.274,11.222Zm.112,16.849c.03-.06-.03-.112-.082-.142-.06,0-.142,0-.142.06a.121.121,0,0,0,.082.172c.06.03.112,0,.142-.082Zm.479-7.882c-.082-.06-.112-.194-.194-.254a.278.278,0,0,0-.194-.112c-.082.06-.254-.03-.314.112-.03.142.112.112.172.194,0,.03.03.06.06.082a.483.483,0,0,0,.479.082c.06-.06.03-.082,0-.112ZM2.3,7.692s-.03-.06-.06-.06a.072.072,0,0,0-.082.082c.03.03.06.06.082.06C2.3,7.744,2.326,7.714,2.3,7.692Zm.479,14.725c-.03-.06,0-.254-.082-.194-.194.082-.254.03-.366-.082-.03-.06-.082,0-.112.03-.03.06-.06.172,0,.172a.366.366,0,0,1,.284.194.143.143,0,0,0,.194.082c.082-.03.082-.112.082-.194Zm-.337-5.654a.174.174,0,0,0-.142-.224c-.082,0-.112.06-.112.142a.218.218,0,0,0,.172.224C2.446,16.935,2.446,16.823,2.446,16.763ZM2.334,8.425s-.03-.06-.06-.06a.064.064,0,0,0-.06.06c.03.03.06.06.082.06s.03-.03.03-.06Zm0,8.817s0-.082-.06-.082c-.03-.03-.06,0-.06.03a.161.161,0,0,0,.03.112c.03,0,.06-.03.082-.06Zm.194,9.475c-.06-.082-.082-.194-.194-.194-.082,0-.112.082-.112.172s.03.172.172.172c.06,0,.112-.06.142-.142ZM2.416,12.635c0-.06-.03-.112-.082-.112a.147.147,0,0,0-.082.142c.03.06.06.06.112.06.06-.03.06-.06.06-.082Zm.142,13.454a.072.072,0,0,0-.082-.082.174.174,0,0,0-.194.194.11.11,0,0,0,.06.112.241.241,0,0,0,.224-.224ZM2.5,21.033c.03-.082-.03-.112-.06-.112-.082,0-.142.03-.142.082,0,.082.03.112.112.112a.072.072,0,0,0,.082-.082ZM2.5,8.17s-.03-.082-.082-.082a.075.075,0,0,0-.082.082c0,.052.03.082.06.082.06.03.082-.03.112-.082ZM2.476,28.355s-.03-.06-.06-.06a.06.06,0,1,0,.06.06Zm0-19.332s-.03-.06-.06-.06a.029.029,0,0,0-.03.03c-.03.03-.03.06,0,.06.03.03.06,0,.082-.03ZM2.64,25.416c.082-.142-.082-.172-.112-.284-.03-.03-.06,0-.082,0-.112.082-.03.194,0,.284v.03c.03.082.03.172.142.172.112-.03.03-.142.06-.194ZM2.812,21a.847.847,0,0,0-.172-.456c-.03-.03-.082-.082-.142-.06-.06,0-.06.082-.082.142-.03.082.03.142.112.172.112.03.142.082.082.194a.112.112,0,0,0,.082.172c.112,0,.112-.112.112-.172ZM2.64,18.775c-.142-.06-.194.03-.224.172C2.528,18.917,2.611,18.887,2.64,18.775Zm0-1.668c0-.06-.03-.112-.082-.112-.082-.03-.082.03-.112.082,0,.06.03.112.082.112C2.611,17.19,2.64,17.16,2.64,17.107Zm.06,7.74a.129.129,0,0,0-.142-.112.105.105,0,0,0-.112.112c0,.082.03.142.112.142A.138.138,0,0,0,2.7,24.848Zm0-13.424s-.03-.082-.06-.082c-.142.03-.142.142-.172.224a.088.088,0,0,0,.082.082c.112-.03.112-.112.142-.224ZM2.67,6.391a.072.072,0,0,0-.082-.082l-.082.082a.072.072,0,0,0,.082.082A.075.075,0,0,0,2.67,6.391Zm-.06,8.959s-.03-.06-.06-.06c-.06,0-.06.06-.06.082s0,.082.03.06c.06,0,.06-.06.082-.082Zm-.022,13.4-.03-.03a.059.059,0,0,0-.06.06l.03.03C2.588,28.811,2.588,28.781,2.588,28.751ZM2.64,10.8s-.03-.06-.06-.06h-.03s0,.06.03.082l.06-.03Zm.142,16.251c.03-.06,0-.082-.06-.082-.112,0-.142.112-.172.194-.03.03.03.082.082.082.112-.03.112-.112.142-.194Zm-.03-13.536a.194.194,0,0,0-.082-.082.121.121,0,0,0-.112.112c0,.052.03.112.082.112s.082-.082.112-.142ZM2.73,28.153s-.03-.06-.06-.06c-.06,0-.112.03-.112.082,0,.03.06.06.082.06a.072.072,0,0,0,.082-.082Zm.135-22.1c0-.06,0-.172-.112-.172a.154.154,0,0,0-.172.172c.03.082.06.172.172.172C2.835,6.226,2.865,6.144,2.865,6.054ZM2.753,19.59c-.03-.082.03-.194-.112-.224-.06,0-.06.06-.03.142.03.03-.082.172.06.194.082.03.112-.06.082-.112Zm0-3.53a.14.14,0,0,0-.06-.112c-.03,0-.06.03-.082.06,0,.06.03.112.082.112C2.723,16.12,2.723,16.06,2.753,16.06Zm.142,7.262c0-.082-.03-.142-.112-.112-.172,0-.142.142-.142.254,0,.06-.03.142.03.112A.416.416,0,0,0,2.895,23.322Zm.03-16.169c0-.082-.082-.142-.194-.142-.082-.03-.082.03-.082.112a.188.188,0,0,0,.172.194c.082,0,.112-.082.112-.172ZM2.812,5.6s-.03-.06-.06-.06c-.06,0-.082.03-.082.06a.072.072,0,0,0,.082.082C2.783,5.68,2.812,5.65,2.812,5.6Zm.082,11.023c-.03-.082-.06-.142-.142-.142a.072.072,0,0,0-.082.082.157.157,0,0,0,.172.112c.03,0,.082-.03.06-.06Zm-.112-4.547a.059.059,0,0,0-.06-.06.029.029,0,0,0-.03.03c0,.06,0,.082.03.082.06,0,.06-.03.06-.06Zm.03-4.21v-.03s-.06-.03-.082,0,0,.06.03.082a.064.064,0,0,0,.06-.06Zm.112,18.427a.146.146,0,0,0-.112-.142.088.088,0,0,0-.082.082.169.169,0,0,0,.082.142C2.872,26.373,2.925,26.343,2.925,26.291Zm0-17.44s-.03-.06-.082-.06a.064.064,0,0,0-.06.06c0,.06.06.06.082.06S2.947,8.881,2.925,8.851ZM2.984,21.8c.03-.06,0-.142.06-.194.03-.03.142-.082.06-.142-.082-.082-.142.03-.194.082l-.082.224c-.03.06,0,.112.082.112a.072.072,0,0,0,.082-.082ZM3.067,24l-.03-.06c-.03-.03-.06-.03-.06,0-.082.06-.082.172-.142.254a.029.029,0,0,0,.03.03A.306.306,0,0,0,3.059,24Zm-.082,4.353s-.03-.06-.06-.03-.06.06-.06.082c-.03.03,0,.06.03.06.06-.03.082-.06.082-.112Zm.082-2.46a.072.072,0,0,0-.082-.082.088.088,0,0,0-.082.082c0,.052.06.082.112.082.03,0,.06-.03.06-.082ZM3.119,6.473c0-.06,0-.112-.082-.142-.06.03-.112.06-.112.112s0,.142.082.142C3.089,6.615,3.119,6.525,3.119,6.473ZM3.1,8.485s-.06-.03-.06,0a.237.237,0,0,0-.082.03c0,.06.03.06.06.03.03,0,.06-.03.082-.06Zm.022,2.229c.03-.06-.03-.082-.06-.082-.06,0-.112.03-.112.082,0,.03.03.06.082.06s.082-.03.082-.06Zm.09,6.3c0-.082-.03-.142-.112-.142-.06-.03-.112.03-.112.112,0,.06.03.142.112.142C3.156,17.13,3.179,17.07,3.209,17.018Zm-.06,7.523c0-.06-.03-.082-.06-.06-.082,0-.112.03-.112.112.03.03.06.06.082.06.06-.03.082-.06.082-.112Zm.03.673c0-.06-.03-.142-.112-.142-.06,0-.082.06-.082.112s0,.112.082.142a.1.1,0,0,0,.112-.112Zm-.03-12.093a.1.1,0,0,0-.06-.03.029.029,0,0,0-.03.03c0,.03,0,.06.06.03A.029.029,0,0,1,3.149,13.121Zm.112,4.913a.253.253,0,0,1,.284-.194c.082-.03.142-.082.224-.112.06-.03.112-.06.082-.112s-.082-.06-.142-.06a.7.7,0,0,0-.621.366c-.03.082-.06.142.03.194C3.2,18.147,3.231,18.087,3.261,18.035Zm-.052,4.495a.092.092,0,0,0-.06-.082l-.03.03s0,.06.03.082C3.179,22.559,3.209,22.559,3.209,22.529Zm.03-.366a.1.1,0,0,1-.03-.06c-.06,0-.082.03-.082.06a.064.064,0,0,0,.06.06c.03,0,.082,0,.06-.06Zm.022,4.27c0-.06,0-.112-.06-.142a.072.072,0,0,0-.082.082c0,.052.03.082.082.112.06,0,.06-.03.06-.06Zm.06-9.071a.087.087,0,0,0-.082-.082c-.06,0-.082,0-.082.03-.03.06.03.112.082.112C3.269,17.421,3.3,17.421,3.321,17.362Zm-.082,10.9a.1.1,0,0,0-.06-.03l-.03.06a.1.1,0,0,0,.06.03C3.239,28.325,3.239,28.3,3.239,28.265ZM3.4,7.123c0-.06-.06-.082-.112-.082a.105.105,0,0,0-.112.112c0,.06.06.06.082.06A.16.16,0,0,0,3.4,7.131Zm-.082.628s0-.082-.06-.082a.087.087,0,0,0-.082.082c0,.06,0,.112.06.112S3.321,7.8,3.321,7.752Zm.112-1.787a.072.072,0,0,0-.082-.082c-.06-.03-.112-.03-.142.06-.03.06,0,.112.06.112a.121.121,0,0,0,.172-.082Zm0,10.433c-.03-.06-.03-.112-.082-.082-.112,0-.112.112-.112.194,0,.03,0,.082.06.06a.16.16,0,0,0,.142-.172Zm.142,1.952a1.438,1.438,0,0,0-.284.142c-.03.03-.06.082-.03.112.03.06.082.06.112.03.112-.082.194-.142.194-.284Zm2.318-3.926.082-.082a1,1,0,0,0,.194-.621c-.03-.426,0-.845,0-1.354a15.462,15.462,0,0,0-.224-2.939A1.027,1.027,0,0,0,4.817,8.44a4.888,4.888,0,0,1-.935-.03c-.314-.06-.366,0-.366.314-.03.314,0,.621-.03.935l-.172,3.253a7.087,7.087,0,0,0,.06.823c0,.337.06.681.03,1.017a.287.287,0,0,0,.224.314,3.638,3.638,0,0,0,.568.112,1.529,1.529,0,0,0,1.7-.733ZM3.912,6.361c0-.142-.112-.337-.224-.314-.142.03-.082.194-.142.284,0,.172.03.254.142.254A.241.241,0,0,0,3.912,6.361ZM3.717,18.124l-.06-.03c-.112.06-.082.142-.082.224.082-.03.172-.082.142-.194Zm.112-1.331a.129.129,0,0,0-.142-.112c-.082,0-.112.06-.112.142a.105.105,0,0,0,.112.112A.138.138,0,0,0,3.83,16.793Zm-.112.591s-.03-.06-.06-.06a.064.064,0,0,0-.06.06c0,.03.03.082.082.06.03,0,.03-.03.03-.06ZM3.882,6.929c0-.06-.03-.082-.06-.082-.06,0-.082.03-.082.06,0,.06.03.082.06.082C3.859,6.989,3.882,6.959,3.882,6.929ZM4.4,19.194a.291.291,0,0,1,.172-.314.237.237,0,0,0,.112-.366.176.176,0,0,0,.172,0c.06-.03.082-.06.082-.112s-.06-.082-.082-.112a.12.12,0,0,0-.142.03.128.128,0,0,0,0,.194H4.57c-.172,0-.337.03-.426-.194,0-.03-.03-.03-.06-.06a.113.113,0,0,0-.172.06c-.06.06-.06.142.03.172.142.03.172.172.284.254.112.06.142.112.06.194a.311.311,0,0,0-.112.254c.03.06.06.112.142.112.082.03.112-.03.082-.112ZM4.278,7.266c-.03-.06-.03-.112-.112-.082-.112.06-.194.112-.194.254,0,.06.06.082.142.06.112,0,.172-.082.172-.224Zm.284,10.1a.226.226,0,0,0-.254-.224.307.307,0,0,0-.254.224c.03.082.254.284.337.254C4.5,17.586,4.473,17.421,4.562,17.362Zm-.142.763c-.03-.082-.03-.172-.142-.172-.082,0-.172.03-.172.112-.03.142.082.142.172.172S4.39,18.177,4.42,18.124ZM4.592,6.847c-.112-.112,0-.314-.112-.479a.158.158,0,0,0-.224-.06.144.144,0,0,0,0,.224.3.3,0,0,1,.142.337c-.03.06.06.082.112.082s.082-.03.082-.112Zm-.314-.823-.03-.03s-.06.03-.03.06a.029.029,0,0,1,.03.03C4.248,6.054,4.278,6.054,4.278,6.024ZM4.338,16.6l-.03-.06c-.06,0-.082,0-.082.06a.06.06,0,0,0,.12,0Zm.172-11c0-.06-.03-.06-.082-.06-.03,0-.06,0-.06.06.03.03.06.06.082.06C4.51,5.658,4.533,5.628,4.51,5.6ZM4.734,7.55q-.03-.06-.06-.06c-.06,0-.082.03-.082.06a.064.064,0,0,0,.06.06C4.712,7.61,4.734,7.58,4.734,7.55Zm.082,9.243a.612.612,0,0,1,.082-.284l-.06-.082c-.06-.03-.082,0-.082.06a.4.4,0,0,1-.142.224c-.03.06-.03.112.06.142C4.734,16.853,4.817,16.883,4.817,16.793ZM4.906,6.45c0-.082-.06-.112-.142-.112a.134.134,0,0,0-.142.112.1.1,0,0,0,.142.082A.16.16,0,0,0,4.906,6.45Zm-.03,13.394c0-.082,0-.142-.112-.172a.105.105,0,0,0-.112.112c0,.112.06.142.142.172C4.877,19.957,4.877,19.927,4.877,19.844Zm.224-1.72c-.03-.112-.142-.194-.172-.314,0-.03-.06-.06-.06-.03-.082.082-.172.142-.172.254-.03.112.082.03.142.06.06,0,.06.06.082.112.03.03.06.06.082.03.082,0,.082-.06.082-.112ZM4.929,5.882c0-.06-.06-.112-.112-.082-.06,0-.112.03-.082.082a.105.105,0,0,0,.112.112C4.929,5.994,4.929,5.934,4.929,5.882Zm0,1.331L4.9,7.131c-.112,0-.112.112-.142.194,0,.03,0,.06.06.03S4.929,7.3,4.929,7.213ZM4.959,18.8s.03-.082-.03-.082c-.03-.03-.06,0-.082.03a.178.178,0,0,0,0,.254.029.029,0,0,0,.03.03c.112-.06.06-.142.082-.224Zm-.03,2.154s0-.082-.06-.082a.064.064,0,0,0-.06.06c.03.03.03.06.06.06s.03-.03.06-.03Zm.2-3.709s0-.082-.06-.082a.064.064,0,0,0-.06.06c-.03.03,0,.06.03.06a.089.089,0,0,0,.082-.03ZM5.5,6.563a.081.081,0,0,0-.06-.112c-.112-.06-.194-.142-.314-.06-.03.03-.06.06-.03.112.06.112.172.06.254.082.06,0,.112.03.142-.03ZM5.722,19.4c.224-.254.172-.538-.172-.71.03-.172,0-.366.172-.538a.192.192,0,0,0,.06-.254.2.2,0,0,0-.284-.06c0-.06,0-.082-.03-.112,0-.06-.06-.082-.112-.06-.06,0-.06.03-.06.082a.075.075,0,0,0,.082.082c.03.03.06,0,.112,0-.03.142-.03.284-.06.449a.264.264,0,0,1-.082.172c-.06.06-.194,0-.172.112.03.082.112.06.194.082.06,0,.112.03.172.03,0,.224.172.426,0,.621-.03.06-.06.082,0,.142.06.03.112,0,.172-.06Zm-.4-11.988s-.03-.082-.082-.06c-.06,0-.06.06-.06.082a.087.087,0,0,0,.082.082c.06,0,.06-.06.06-.112Zm.03,9.273c-.03-.06.03-.142-.06-.142s-.112.082-.112.142.03.112.082.112c.082.03.082-.06.082-.112Zm.082,4.1-.03-.06a.165.165,0,0,0-.172.172c-.03,0,.03.06.03.06C5.378,20.951,5.408,20.869,5.437,20.779Zm-.112-1.87s0-.06-.03-.06a.064.064,0,0,0-.06.06l.03.03S5.325,18.939,5.325,18.91ZM5.55,5.8a.263.263,0,0,0-.172-.172c-.03,0-.082.06-.082.112,0,.082.082.112.142.112s.112,0,.112-.06ZM5.5,19.164s0-.082-.06-.082c-.03,0-.06,0-.06.03-.03.06,0,.082.03.082.03.03.06,0,.082-.03Zm.142,2.408c0-.082-.082-.112-.172-.112-.03-.03-.06,0-.06.03.03.082.06.142.142.142.03,0,.082-.03.082-.06ZM5.811,7.58c.03-.142-.082-.194-.194-.224-.112,0-.142.082-.142.172.03.112-.03.224.112.254a.2.2,0,0,0,.224-.194ZM5.58,19.792s-.03-.06-.06-.06-.06,0-.06.06a.06.06,0,0,0,.12,0Zm.112,1.466a.072.072,0,0,0-.082-.082c-.03,0-.06.03-.06.082s.03.082.06.082C5.669,21.31,5.692,21.28,5.692,21.258ZM6.342,6.024a.185.185,0,0,0-.082-.172c-.06-.03-.142-.03-.172.03-.082.172-.172.224-.366.142-.06-.03-.112.03-.142.082-.03.03,0,.082,0,.082a.828.828,0,0,1,.284.194,2.9,2.9,0,0,0,.479-.366ZM5.864,6.7c0-.06-.03-.112-.082-.112-.194,0-.142.172-.194.284,0,.03,0,.082.06.06a.31.31,0,0,0,.224-.224ZM6.2,21.34c-.03-.082-.03-.172-.06-.254-.06-.337-.314-.591-.366-.935a.107.107,0,0,0-.142-.06c-.06.022-.06.082-.03.142.082.194.06.449.142.568.142.194.082.4.172.568a.1.1,0,0,1,.03.06c.06.06.082.082.172.06.082,0,.082-.06.082-.142Zm-.479,1.675c.06-.172.284-.254.172-.479-.03-.06.06-.142,0-.172s-.082.082-.112.112l-.172.337c-.03.082.03.142.06.194,0,.03.06.082.06,0Zm.254-6.843a.105.105,0,0,0-.112-.112c-.052,0-.112.03-.112.082s.03.142.112.142.112-.03.112-.112Zm-.03,5.908c0-.082-.06-.112-.112-.142-.03,0-.082.03-.082.06a.138.138,0,0,0,.082.142A.081.081,0,0,0,5.946,22.08ZM5.834,5.658a.029.029,0,0,1-.03-.03l-.03.06a.029.029,0,0,1,.03.03C5.8,5.688,5.834,5.688,5.834,5.658Zm.172,12.8a.18.18,0,0,0-.112-.172.064.064,0,0,0-.06.06.16.16,0,0,0,.082.142c.03.03.06,0,.082-.03Zm-.03,6.955s-.03-.06-.06-.06c-.06-.03-.082,0-.082.06a.064.064,0,0,0,.06.06C5.924,25.476,5.953,25.446,5.976,25.416Zm.06-6.618c0-.06-.03-.082-.082-.112a.088.088,0,0,0-.082.082c-.03.03,0,.082.06.082.06.03.082,0,.112-.06Zm0,1.107c0-.06,0-.082-.06-.082s-.112.03-.112.082.06.06.082.06c.06,0,.082-.03.082-.06Zm-.06-2.348a.1.1,0,0,0-.06-.03.1.1,0,0,1-.03.06l.06.03A.1.1,0,0,0,5.976,17.556ZM6.484,24.4a.531.531,0,0,0-.426-.254c-.082.03-.112.112-.142.194A.072.072,0,0,0,6,24.421c.06.03.112.03.142-.06.082-.142.112-.03.142.06a.107.107,0,0,0,.142.06Zm-.366-4.921a.1.1,0,0,0-.06-.03.06.06,0,0,0,0,.12c.03-.03.06-.03.06-.082Zm-.03,3.874a.1.1,0,0,1-.03-.06.35.35,0,0,0-.03.172c0,.03,0,.06.03.03A.2.2,0,0,0,6.088,23.352ZM6.6,7.438c.03-.082-.03-.142-.112-.194a.371.371,0,0,0-.254,0,.089.089,0,0,1,.03-.082c0-.06,0-.112-.06-.142-.06,0-.082,0-.112.06s0,.082.06.112a.1.1,0,0,0,.082.03c-.082.194.03.254.172.284.06.03.172.082.194-.06ZM6.23,25.752s0-.06-.03-.06c-.082,0-.112.03-.112.082,0,.03,0,.06.06.06A.072.072,0,0,0,6.23,25.752Zm.06-9.834a.072.072,0,0,0-.082-.082c-.052,0-.112.06-.082.112a.072.072,0,0,0,.082.082C6.268,16,6.32,16,6.29,15.918Zm.082,1.75c-.03-.06-.06-.082-.112-.082-.03,0-.082,0-.082.06,0,.082.06.082.142.082a.064.064,0,0,0,.06-.06ZM6.455,6.615c0-.082-.03-.142-.112-.142-.082-.03-.082.06-.112.112a.16.16,0,0,0,.082.142A.225.225,0,0,0,6.455,6.615Zm0,14.1c0-.06-.03-.082-.082-.06a.1.1,0,0,0-.112.112c0,.06.06.06.112.06S6.455,20.772,6.455,20.719Zm0-7.77c0-.06-.06-.082-.112-.112-.03-.03-.06,0-.06.03,0,.082.06.082.082.112.03,0,.082,0,.082-.03Zm0,12.549c0-.06-.03-.082-.06-.082a.072.072,0,0,0-.082.082c0,.052.03.082.06.082A.072.072,0,0,0,6.455,25.5Zm.03-6.245c.03-.06-.03-.082-.06-.082-.06-.03-.082,0-.082.06,0,.03.03.06.06.082C6.462,19.313,6.484,19.284,6.484,19.254ZM6.455,22.5c0-.06-.03-.082-.06-.082a.064.064,0,0,0-.06.06c0,.06,0,.082.06.082C6.425,22.559,6.425,22.5,6.455,22.5Zm0-5.93s0-.06-.03-.06c-.03-.03-.06-.03-.06,0-.03.06,0,.082.03.112a.064.064,0,0,0,.06-.06ZM6.514,14a.072.072,0,0,0-.082-.082c-.06.03-.06.06-.06.112s.03.082.06.082C6.492,14.108,6.514,14.049,6.514,14Zm.337-8c.03-.06-.314-.479-.366-.509-.082-.03-.082.06-.082.112.06.142.082.284.142.456.03.06.03.142.112.112A.183.183,0,0,0,6.851,5.994ZM6.627,9.158a.072.072,0,0,0-.082-.082c-.082,0-.142.03-.142.112s.03.142.112.142A.157.157,0,0,0,6.627,9.158ZM6.544,22.9c0-.06,0-.082-.06-.082-.06.03-.082.06-.082.112,0,.03.03.082.06.06a.072.072,0,0,0,.082-.082Zm0,.763-.03-.06c-.06-.03-.082,0-.112.03a.14.14,0,0,0,.06.112A.072.072,0,0,0,6.544,23.658ZM6.6,21.684c0-.06-.06-.082-.112-.082s-.082.03-.06.082c0,.06.06.082.112.082C6.567,21.736,6.6,21.707,6.6,21.684Zm.06-13.117c-.03-.06-.06-.082-.112-.082-.06.03-.112.03-.112.082s.082.03.142.06C6.634,8.627,6.656,8.6,6.656,8.567ZM6.6,13.316v-.06c-.112,0-.142.082-.172.142v.06A.721.721,0,0,1,6.6,13.316Zm.06,7.972c.03-.172.06-.284.254-.314.03-.03.06-.03.06-.082,0,0-.337-.06-.337-.03,0,.172-.172.314-.194.479a.072.072,0,0,0,.082.082.138.138,0,0,0,.142-.142Zm.082.935V22.08c-.03-.082-.03-.172-.142-.142-.03,0-.112-.06-.142,0-.06.082.06.112.082.172a.208.208,0,0,1,.06.142c.03.03.03.112.082.082C6.761,22.335,6.739,22.275,6.739,22.223Zm-.194-6c.03-.06.03-.082-.03-.112-.03,0-.06,0-.06.03-.03.06,0,.082.03.112C6.514,16.255,6.544,16.255,6.544,16.225Zm.254-.449c.03-.082-.06-.112-.112-.172s-.112-.082-.172-.03c-.06.03-.082.082-.06.172s.142,0,.194.06c.06,0,.142.03.142-.03ZM6.686,26.515c0-.06-.06-.082-.142-.082-.06,0-.112.06-.082.112,0,.082.06.112.142.112.06-.03.112-.06.082-.142ZM6.574,10.04a.029.029,0,0,0-.03-.03c-.03,0-.06,0-.06.03-.03,0,0,.03.03.03A.093.093,0,0,0,6.574,10.04Zm0,2.513a.1.1,0,0,0-.06-.03l-.03.03a.029.029,0,0,0,.03.03C6.544,12.583,6.544,12.553,6.574,12.553Zm0,2.094s-.06,0-.06-.03a.1.1,0,0,0-.03.082.1.1,0,0,0,.06.03A.1.1,0,0,0,6.574,14.647Zm.052,5.818a.294.294,0,0,0-.06-.082c-.03,0-.06,0-.082.06,0,.03,0,.06.03.06.06.03.082,0,.112-.03Zm.142,5.257c0-.06,0-.172-.112-.172-.082.03-.172.082-.172.194.03.082.06.142.142.142.112-.03.142-.06.142-.172ZM6.686,23.24c0-.06,0-.112-.06-.082-.112.03-.112.112-.112.194-.03.06,0,.112.06.112C6.686,23.434,6.656,23.322,6.686,23.24Zm.022-6.274a.072.072,0,0,0-.082-.082A.105.105,0,0,0,6.514,17c0,.052.06.082.112.082S6.709,17.047,6.709,16.965Zm-.112.419s0-.06-.03-.06h-.06l.03.06ZM6.739,7.071c0-.082-.03-.112-.112-.112-.03,0-.06.03-.082.082.03.06.06.112.142.112.03,0,.06-.06.06-.082Zm0,12.863c.03-.06-.03-.082-.082-.082s-.082.03-.082.06c.03.06.06.112.112.112.03,0,.06-.03.06-.082Zm1.017,4.943a.341.341,0,0,1-.172-.254c-.03-.112-.082-.112-.172-.03-.06.06-.082.172-.172.112s-.03-.172,0-.224a.192.192,0,0,1,.03-.112c0-.082-.03-.194-.142-.194-.112-.03-.082.112-.082.172-.03.06-.03.112-.06.142,0,.06-.06.082-.112.082s-.06-.06-.06-.112a2.123,2.123,0,0,1,.112-.254.208.208,0,0,0-.06-.142c-.082-.03-.112,0-.142.06l-.172.651c0,.06.06.112.112.06.172-.194.172-.03.254.082.082.172.194.172.314.06.112-.172.172-.112.224.03,0,.03.03.06.03.082.082.142.194.082.314.03.112-.082,0-.172-.06-.224Zm-1.069.284a.059.059,0,0,0-.06-.06c-.03,0-.06,0-.06.06,0,.03,0,.06.06.06A.064.064,0,0,0,6.686,25.162ZM6.828,8.028a.242.242,0,0,0-.142-.142c-.06,0-.082.03-.082.06-.03.082.03.112.112.112C6.746,8.058,6.8,8.088,6.828,8.028ZM6.709,18.6a.324.324,0,0,1-.03-.082c0,.03-.03.06-.03.082a.1.1,0,0,0,.03.082C6.679,18.655,6.709,18.625,6.709,18.6Zm.232-5.085c0-.082,0-.142-.112-.142a.228.228,0,0,0-.142.224c0,.06.06.112.112.082.112,0,.142-.082.142-.172ZM6.828,20.3s-.06-.06-.082-.06l-.03.03.082.06A.029.029,0,0,0,6.828,20.3Zm.651-6.252a.675.675,0,0,0-.4-.337,1.59,1.59,0,0,0-.337.172v.06a.184.184,0,0,0,.314.082c.112-.142.194-.172.224.082,0,.06.06.082.142.06a.153.153,0,0,0,.06-.112ZM7.053,7.58c0-.082-.03-.142-.112-.142s-.112.03-.142.112a.16.16,0,0,0,.142.172C7.023,7.722,7.053,7.662,7.053,7.58Zm-.112,6.843c0-.06-.03-.082-.06-.06-.06,0-.082.03-.06.082a.064.064,0,0,0,.06.06C6.941,14.5,6.963,14.445,6.941,14.422ZM7.083,25.3c.06-.112.03-.194-.112-.194-.082,0-.172.06-.142.142.03.112.112.082.224.06h.03ZM6.963,6.592a.072.072,0,0,0-.082-.082.064.064,0,0,0-.06.06.072.072,0,0,0,.082.082A.064.064,0,0,0,6.963,6.592Zm0,1.78s-.03-.082-.082-.082c-.03,0-.06.06-.06.082a.071.071,0,0,0,.06.06C6.941,8.462,6.963,8.432,6.963,8.372Zm.03,19.272s-.06-.06-.112-.03a.064.064,0,0,0-.06.06c0,.06.06.06.082.06a.072.072,0,0,0,.082-.082Zm0-14.9c0-.06-.03-.06-.082-.06-.06.03-.082.06-.06.112,0,.06.03.082.082.06C6.993,12.859,6.993,12.8,6.993,12.747ZM7.135,9.5c.03-.082,0-.112-.03-.112-.112-.03-.172.06-.254.112,0,.03,0,.06.03.06C6.941,9.621,7.135,9.532,7.135,9.5ZM6.963,23.658s0-.082-.03-.06c-.06,0-.06.06-.082.112,0,.03.03.06.06.03.03,0,.06-.03.06-.082Zm.142,2.408c-.082-.194.112-.172.172-.224.082-.112-.112-.194-.03-.314l.06-.06s.172-.03.112-.142c-.06-.082-.112.03-.194.03-.03-.03-.082-.03-.112-.06-.194.172-.142.426-.194.651-.03.03,0,.082.03.142s.06.082.112.06c.06,0,.082-.06.06-.082ZM7.023,15.38s0-.06-.03-.082a.064.064,0,0,0-.06.06c-.03.06-.03.082.03.082S7.023,15.41,7.023,15.38Zm.194,11.9c-.03-.06.03-.142-.03-.112a.36.36,0,0,0-.224.112.106.106,0,0,0,.03.172c.06.03.082.06.142.03.082-.06.06-.142.082-.194ZM7.165,11.424a.294.294,0,0,1-.082-.06.185.185,0,0,0-.112.172c0,.03.03.03.06.03.06-.06.172-.03.142-.142Zm-.06,10.148s-.03-.06-.06-.06c-.03.03-.082.06-.082.082s0,.06.03.06C7.053,21.684,7.075,21.624,7.105,21.572ZM7.135,10.8s-.03-.06-.06-.03c-.06,0-.082,0-.082.082,0,.03.03.06.06.03A.072.072,0,0,0,7.135,10.8Zm-.03,5.257a.029.029,0,0,0-.03-.03.064.064,0,0,0-.06.06c-.03.03,0,.06.06.03C7.105,16.12,7.105,16.09,7.105,16.06Zm.06-1.159s0-.082-.06-.082c-.082.03-.082.112-.082.172s0,.142.06.112c.112,0,.06-.112.082-.194Zm.03,13.2-.03-.03c-.03,0-.03.03-.06.03a.029.029,0,0,1,.03.03C7.165,28.131,7.165,28.1,7.195,28.1Zm.082-15.884c0-.06-.03-.082-.06-.082-.082,0-.112.06-.082.112a.064.064,0,0,0,.06.06.072.072,0,0,0,.082-.082Zm0,9.722s-.03-.06-.06-.03a.11.11,0,0,0-.06.112c0,.03-.03.082.03.082l.082-.172Zm0-5.085c0-.06,0-.082-.06-.112a.064.064,0,0,0-.06.06.14.14,0,0,0,.06.112C7.277,16.913,7.277,16.883,7.277,16.853Zm.082-9.587c0-.06,0-.112-.06-.142a.121.121,0,0,0-.112.112c0,.052,0,.142.082.142s.082-.06.082-.112Zm.374,5.684c.03-.06.06-.112-.03-.142-.06-.03-.082.03-.112.082a.336.336,0,0,1-.284.254.1.1,0,0,0-.112.112c.03.082.082.082.172.112.194,0,.337-.172.366-.426Zm-.344.621c.03-.06,0-.112-.06-.112s-.142,0-.142.082c0,.06.06.082.112.142.06-.03.06-.082.082-.112ZM7.337,27.764s0-.082-.06-.082c-.03,0-.06,0-.06.03-.03.06,0,.082.03.082.03.03.06,0,.082-.03ZM7.479,6.645c0-.06-.03-.082-.082-.06s-.142-.03-.172.082c0,.06.06.03.112.03s.112,0,.142-.06Zm-.09,3.537s-.03-.06-.06-.06a.072.072,0,0,0-.082.082c0,.03.03.06.082.06S7.389,10.234,7.389,10.182Zm.224,4.4c0-.112-.06-.142-.142-.142s-.194.03-.194.142c-.03.082.03.112.082.112C7.472,14.7,7.584,14.7,7.614,14.587Zm-.082.651c0-.112-.06-.142-.142-.142s-.112.03-.112.112c.03.082.06.172.142.172C7.531,15.38,7.561,15.32,7.531,15.238Zm.06.621c0-.082-.112-.082-.172-.082-.06-.03-.142,0-.142.06,0,.142.112.03.172.082C7.509,15.918,7.591,15.948,7.591,15.858ZM7.9,23.973c-.03-.082-.082-.172-.112-.254-.082-.172-.284-.194-.426-.314-.06,0-.06.03-.06.082a1.194,1.194,0,0,0,.479.568c.06.06.112.112.142.082.112-.06-.03-.112-.03-.172ZM7.5,7.632s0-.06-.03-.082a.1.1,0,0,0-.142.06c-.03.03,0,.03.03.06a.2.2,0,0,0,.142-.03Zm.03,15.548c-.03-.06-.06-.082-.112-.082s-.082.06-.082.112a.107.107,0,0,0,.142.06c.03,0,.06-.03.06-.082Zm-.082.9a.059.059,0,0,0-.06-.06c-.03-.03-.06,0-.06.06,0,.03,0,.06.03.06.06,0,.082-.03.082-.06ZM7.5,9.786s-.06-.06-.082-.06a.077.077,0,0,0-.06.082c.03.03.06.03.06.06C7.479,9.838,7.5,9.808,7.5,9.786Zm0,17.208s-.03-.06-.06-.06c-.06,0-.082.03-.082.06a.072.072,0,0,0,.082.082C7.472,27.076,7.5,27.016,7.5,26.994Zm.254-.9.03-.194c.03-.06,0-.082-.082-.082-.06.082-.172.06-.284.112-.06,0-.082.082,0,.112a.494.494,0,0,1,.194.112C7.674,26.179,7.726,26.179,7.756,26.089ZM7.531,8.425s-.06-.06-.082-.06c-.06,0-.082.03-.06.082,0,.03.03.06.082.03a.064.064,0,0,0,.06-.06Zm.142,7.942c0-.082-.03-.142-.112-.142-.112,0-.142.082-.172.172a.138.138,0,0,0,.142.142C7.614,16.539,7.644,16.457,7.674,16.367ZM7.7,26.373c0-.06-.03-.082-.06-.082-.06-.03-.112-.03-.172-.06-.06,0-.082.03-.082.06s.03.06.06.082a.245.245,0,0,1,.142.03C7.651,26.433,7.7,26.463,7.7,26.373Zm.142,1.81c-.03-.06-.082-.03-.142-.06.03-.142-.06-.224-.224-.172-.082.03-.082.112-.06.194.112.194.194.03.284-.03.03.06.03.112.082.112a.064.064,0,0,0,.06-.06Zm-.254-17.35a.072.072,0,0,0-.082-.082c-.03-.03-.082-.03-.082.03-.03.03.03.06.06.082.06,0,.082,0,.112-.03Zm.165,16.984c.06,0,.06-.06.06-.112a.105.105,0,0,0-.112-.112c.224-.142-.06-.314.03-.449.03-.03,0-.06,0-.082,0,0-.06-.03-.06,0a.681.681,0,0,0-.224.254c-.03.082.03.142.112.172A.467.467,0,0,0,7.7,27.6c0,.03-.03.06-.03.112,0,.03-.082.06-.03.112,0,.03.06,0,.112,0ZM7.614,12.583c0-.082-.082-.082-.142-.112a.029.029,0,0,1-.03.03.179.179,0,0,0,.142.112C7.584,12.643,7.614,12.613,7.614,12.583Zm0,16c0-.06,0-.082-.06-.06-.03,0-.06.03-.06.082-.03.03.03.06.06.06C7.614,28.662,7.614,28.6,7.614,28.579Zm.06-20.745c.03-.06-.03-.06-.082-.06a.088.088,0,0,0-.082.082.064.064,0,0,0,.06.06c.06,0,.112-.03.112-.082ZM7.7,24.287c0-.06-.06-.06-.082-.06s-.082.03-.06.06c0,.06.06.03.082.06C7.7,24.346,7.726,24.317,7.7,24.287Zm.052-10.433c.03-.06,0-.082-.03-.112a.113.113,0,0,0-.172.06c0,.03,0,.06.06.082S7.726,13.914,7.756,13.854Zm.366.845a.072.072,0,0,0-.082-.082c-.112.03-.426.254-.449.366,0,.082.03.112.082.082A.951.951,0,0,0,8.122,14.7Zm-.479,2.124s.03-.082-.03-.082a.324.324,0,0,0-.03.082c0,.022.03.06.03.082A.1.1,0,0,0,7.644,16.823Zm.06,6.162a.093.093,0,0,1-.06-.03.1.1,0,0,1-.03.06.1.1,0,0,0,.06.03Zm.254,2.543c0-.082-.06-.142-.142-.112-.082,0-.194,0-.194.112s.082.142.194.142A.138.138,0,0,0,7.958,25.528Zm-.03-13.962c-.03-.112.112-.314-.082-.4l-.06-.06s-.06-.06-.112-.03v.03c0,.082.06.06.112.06h.06c-.03.112-.112.172-.172.284-.06.142.06.082.112.112C7.846,11.566,7.928,11.648,7.928,11.566Zm-.112-1.107a.087.087,0,0,0-.082-.082c-.03.03-.06.06-.03.082a.064.064,0,0,0,.06.06c.03-.03.06-.03.06-.06Zm.052,1.81c0-.06-.03-.112-.082-.112a.089.089,0,0,0-.082.03c0,.082.03.112.112.142a.064.064,0,0,0,.06-.06Zm0-3.246s-.03-.06-.06-.06c-.06.03-.06.06-.06.082a.1.1,0,0,0,.06.03.064.064,0,0,0,.06-.06ZM8.04,26.829a.127.127,0,0,0-.112-.082.234.234,0,0,0-.082.172c0,.06.06.082.112.082A.119.119,0,0,0,8.04,26.829Zm-.112,1.638c0-.06-.03-.06-.06-.06s-.03.03-.03.06,0,.06.03.06S7.928,28.467,7.928,28.467Zm.03-16.505s0-.06-.03-.082c-.03,0-.06,0-.06.03-.03.03-.03.06,0,.082a.089.089,0,0,0,.082-.03Zm.03-3.732V8.148s0-.06-.03-.06c-.03-.03-.06,0-.06.03-.03.06,0,.082-.03.112.03.082,0,.172.06.172S7.958,8.29,7.988,8.23Zm.022,5.287a.072.072,0,0,0-.082-.082c-.03.03-.06.06-.06.082a.077.077,0,0,0,.082.06A.064.064,0,0,0,8.01,13.518Zm-.022,9.864-.03-.06c-.06-.03-.082.03-.082.082,0,.03,0,.06.03.06A.072.072,0,0,0,7.988,23.382ZM8.07,7.752s-.03-.06-.06-.06a.064.064,0,0,0-.06.06c0,.03,0,.06.06.06A.064.064,0,0,0,8.07,7.752Zm0,6.671c0-.06-.03-.06-.06-.06a.06.06,0,1,0,.06.06Zm.052-1.331c0-.172.172-.224.224-.366.03-.06.06-.142,0-.194-.082-.06-.172,0-.224.06-.082.142-.06.314-.142.479,0,.03.03.06.082.06.03,0,.06,0,.06-.03Zm.03,2.483c0-.06-.03-.082-.082-.112a.072.072,0,0,0-.082.082c0,.03.03.06.06.082.06,0,.082,0,.112-.06ZM8.294,27.9c-.142-.06-.142-.194-.194-.314-.03,0-.06.03-.082.06-.03.112.06.314.172.337.06,0,.082,0,.112-.082Zm-.142.254s-.06-.06-.082-.06c-.06,0-.06.03-.06.06s.06.06.082.06S8.175,28.183,8.152,28.153ZM8.122,10.04a.093.093,0,0,0-.03-.06.064.064,0,0,0-.06.06c0,.03.03.03.03.06C8.092,10.1,8.122,10.1,8.122,10.04Zm.09.479a.059.059,0,0,0-.06-.06c-.03,0-.082.06-.082.082,0,.06,0,.082.06.06A.088.088,0,0,0,8.212,10.519Zm.366,3.642c0-.112-.112-.082-.194-.082a.775.775,0,0,1-.224-.06c-.03,0-.082.06-.06.082a1.439,1.439,0,0,0,.254.194c.082-.06.224-.06.224-.142Zm-.337,10.4s-.03-.06-.06-.06a.087.087,0,0,0-.082.082.072.072,0,0,0,.142-.022Zm.022.456c0-.06-.03-.082-.082-.112a.088.088,0,0,0-.082.082c0,.03.03.06.082.082.03.03.082,0,.082-.06Zm-.022-13.85c0-.06-.03-.06-.06-.06a.064.064,0,0,0-.06.06c0,.03,0,.06.03.06.06,0,.082-.03.082-.06Zm.022,3.956c0-.06-.03-.082-.06-.082a.072.072,0,0,0-.082.082c0,.03.03.06.082.06A.064.064,0,0,0,8.264,15.125Zm0-7.464c.03-.06,0-.082-.03-.082s-.082-.03-.082,0c-.03.03,0,.06.03.082S8.242,7.662,8.264,7.662Zm.142,8.907c0-.06-.03-.112-.082-.112-.082,0-.172.03-.172.112a.146.146,0,0,0,.112.142A.138.138,0,0,0,8.406,16.569Zm-.194,8.877v-.06a.053.053,0,0,0-.06.06.03.03,0,1,0,.06,0ZM8.354,8.679c0-.06,0-.142-.082-.112s-.082.112-.082.194c-.03.06.03.082.082.082.082-.03.082-.082.082-.172Zm.022,4.951s-.03-.082-.06-.082c-.06-.03-.082,0-.082.06s.03.082.082.112c.03,0,.06-.06.06-.082Zm-.022-.509a.1.1,0,0,0-.06-.03c-.03,0-.06.03-.03.06a.029.029,0,0,0,.03.03A.064.064,0,0,0,8.354,13.121Zm.022,15.346-.03-.06c-.06.03-.06.06-.06.112l.03.03S8.377,28.49,8.377,28.467Zm.09-.987s-.03-.06-.06-.06-.082,0-.082.06c-.03.03.03.03.06.06C8.414,27.54,8.444,27.51,8.466,27.48Zm.142-18.12s-.112-.254-.172-.284c-.03.03-.06.03-.06.06a.36.36,0,0,0,.142.284c.03.03.06,0,.082-.06ZM8.519,28.1s-.03-.06-.06-.06-.06,0-.06.06a.06.06,0,0,0,.12,0Zm.06-1.638-.03-.03c-.06,0-.06.03-.06.06a.029.029,0,0,1,.03.03C8.578,26.523,8.578,26.493,8.578,26.463Zm.142-15.578s0-.082-.06-.082c-.03,0-.06.03-.082.06,0,.06,0,.082.06.082S8.721,10.945,8.721,10.885Zm.165,5s-.03-.06-.06-.06c-.06,0-.082.03-.082.06-.03.06,0,.082.06.082C8.863,16,8.885,15.941,8.885,15.888Zm.06-2.6-.142-.06s-.082,0-.06.06c0,.03.06.06.082.06a.115.115,0,0,0,.112-.06Zm-.082-1.354s.03-.06,0-.06H8.8v.06Zm.082-.621c0-.06-.03-.06-.082-.06-.03-.03-.06-.03-.06.03,0,.03.03.06.082.06C8.915,11.341,8.945,11.341,8.945,11.311Zm0,16.819c.06-.06.142-.03.172-.082a.4.4,0,0,0-.172-.06c-.06.03-.112.06-.082.142C8.863,28.19,8.922,28.131,8.945,28.131ZM8.975,8.2a.029.029,0,0,1-.03-.03c-.03.03-.06.03-.06.06s.03.06.06.03C8.975,8.26,8.975,8.23,8.975,8.2ZM9,9.928l-.03-.06c-.06,0-.082.03-.082.06a.06.06,0,0,0,.12,0Z" transform="translate(19.998 7.943)" fill="#e939b4"/>
  </g>
</svg>
